<svg width="178" height="89" viewBox="0 0 178 89" fill="none" xmlns="http://www.w3.org/2000/svg">
<g clip-path="url(#clip0_4_242)">
<path d="M12.3066 66.9508L11.4833 64.7848H4.49338L3.67017 66.998C3.46955 67.6133 3.19294 68.2011 2.84696 68.7475C2.71095 68.9069 2.53905 69.0312 2.34528 69.11C2.15151 69.1888 1.94161 69.2198 1.73342 69.2004C1.51756 69.2011 1.30354 69.1588 1.10408 69.076C0.90461 68.9931 0.723465 68.8714 0.571188 68.7178C0.415032 68.5813 0.289789 68.4132 0.202847 68.2245C0.115904 68.0358 0.0692255 67.8308 0.0666695 67.623C0.0688015 67.3754 0.108399 67.1297 0.183933 66.894C0.261403 66.6433 0.390425 66.294 0.571188 65.8462L4.96953 54.6387C5.09445 54.317 5.24532 53.9303 5.42156 53.4787C5.56841 53.0848 5.75709 52.7079 5.98424 52.3546C6.18583 52.0544 6.45527 51.8063 6.77057 51.6305C7.14061 51.4351 7.55466 51.3399 7.97253 51.354C8.39417 51.3391 8.81235 51.4344 9.1863 51.6305C9.4991 51.8045 9.76797 52.0482 9.97216 52.3429C10.1729 52.6361 10.342 52.9499 10.4767 53.2789C10.6129 53.6123 10.7869 54.0576 10.9987 54.6148L15.4907 65.7525C15.7716 66.3328 15.95 66.9576 16.0183 67.5991C16.0142 67.8069 15.9677 68.0117 15.8822 68.2009C15.7966 68.3901 15.6735 68.5599 15.5204 68.6999C15.3646 68.8611 15.1778 68.9887 14.971 69.0747C14.7642 69.1607 14.5423 69.2033 14.3185 69.2C14.0757 69.2073 13.8345 69.1574 13.6144 69.0541C13.4226 68.9594 13.2545 68.8227 13.1222 68.6542C12.9483 68.4136 12.8042 68.1525 12.6938 67.8766C12.545 67.5267 12.416 67.2181 12.3066 66.9508ZM5.40927 62.1596H10.5471L7.95456 55.0367L5.40927 62.1596Z" fill="#002D4B"/>
<path d="M20.7397 51.6461H25.2794C26.3017 51.6283 27.3225 51.7391 28.3174 51.976C29.1702 52.2001 29.958 52.6238 30.6163 53.2123C32.4065 54.7506 33.3017 57.0894 33.302 60.2288C33.3102 61.1814 33.2194 62.1322 33.0316 63.0659C32.8695 63.8741 32.589 64.6537 32.1989 65.3792C31.822 66.0685 31.335 66.691 30.7567 67.2215C30.306 67.6307 29.7956 67.9684 29.2432 68.2227C28.6812 68.4783 28.0872 68.6565 27.4776 68.7524C26.7726 68.8601 26.0605 68.9112 25.3475 68.9054H20.8082C20.3142 68.936 19.8208 68.8365 19.3769 68.6168C19.2242 68.5295 19.0897 68.4128 18.9821 68.2734C18.8745 68.1339 18.7959 67.9745 18.75 67.8042C18.6412 67.3592 18.592 66.9016 18.6043 66.4435V53.7872C18.5496 53.4939 18.567 53.1916 18.6549 52.9064C18.7428 52.6213 18.8986 52.362 19.1088 52.151C19.3191 51.9399 19.5775 51.7835 19.8616 51.6952C20.1457 51.607 20.4469 51.5896 20.7392 51.6446L20.7397 51.6461ZM22.0887 54.4127V66.1247H24.7281C25.3068 66.1247 25.7601 66.1085 26.0884 66.0761C26.437 66.0398 26.78 65.9606 27.1093 65.8404C27.4452 65.7243 27.7555 65.5444 28.0237 65.3107C29.1887 64.3216 29.7715 62.6184 29.7718 60.2012C29.7718 58.4983 29.5157 57.2229 29.0035 56.3751C28.5966 55.6162 27.9205 55.0384 27.1093 54.7563C26.224 54.5068 25.3069 54.3897 24.3876 54.4088L22.0887 54.4127Z" fill="#002D4B"/>
<path d="M53.7002 54.3422H45.853V58.5808H53.0785C53.506 58.5473 53.9306 58.6752 54.2691 58.9395C54.3992 59.0595 54.5019 59.2064 54.5698 59.3701C54.6377 59.5339 54.6693 59.7105 54.6625 59.8877C54.669 60.0659 54.6375 60.2435 54.5707 60.4087C54.504 60.574 54.4031 60.7231 54.2747 60.8465C53.9387 61.1207 53.5101 61.2538 53.0785 61.2178H45.853V66.1261H53.9698C54.4155 66.093 54.8577 66.2295 55.2077 66.5086C55.3467 66.6381 55.4559 66.7966 55.5278 66.9728C55.5997 67.149 55.6323 67.3389 55.6237 67.5291C55.6303 67.7153 55.5963 67.9007 55.5245 68.0725C55.4526 68.2442 55.3447 68.3983 55.2077 68.5239C54.8577 68.803 54.4155 68.9395 53.9698 68.9064H44.504C44.2115 68.9627 43.9097 68.9462 43.625 68.8585C43.3403 68.7707 43.0814 68.6143 42.8708 68.4029C42.6602 68.1916 42.5043 67.9316 42.4169 67.6459C42.3295 67.3602 42.3131 67.0573 42.3691 66.7637V53.7882C42.3539 53.3668 42.43 52.9471 42.5923 52.5582C42.7324 52.2488 42.9808 52.0017 43.2902 51.8638C43.6749 51.7054 44.0886 51.631 44.504 51.6455H53.7002C54.1443 51.6099 54.5855 51.7424 54.9372 52.0168C55.0709 52.1396 55.1765 52.2901 55.2464 52.458C55.3163 52.6258 55.3488 52.807 55.3419 52.9888C55.3496 53.1723 55.3173 53.3553 55.2474 53.525C55.1775 53.6948 55.0717 53.8473 54.9372 53.9719C54.5853 54.2459 54.1442 54.3781 53.7002 54.3422Z" fill="#C68E0B"/>
<path d="M65.1131 67.8693L62.7887 64.4437L60.4075 67.8693C60.1559 68.2423 59.8636 68.5859 59.536 68.8937C59.2804 69.1035 58.9572 69.2123 58.6272 69.1994C58.2455 69.2088 57.8747 69.072 57.5898 68.8169C57.4587 68.7116 57.3524 68.5787 57.2782 68.4275C57.2041 68.2763 57.1637 68.1107 57.1605 67.9422C57.2426 67.408 57.4701 66.9069 57.8177 66.494L60.7153 62.3263L58.1454 58.8535C57.7674 58.4406 57.5329 57.916 57.4768 57.3581C57.4771 57.1944 57.5129 57.0328 57.5818 56.8844C57.6507 56.736 57.7512 56.6045 57.8759 56.4989C58.1642 56.2471 58.5381 56.1162 58.9199 56.1335C59.2591 56.1211 59.5909 56.2344 59.8523 56.4518C60.1759 56.7522 60.4653 57.0878 60.7148 57.4524L62.7896 60.3012L64.8082 57.4524C65.0565 57.0806 65.3491 56.7407 65.6796 56.4402C65.9399 56.231 66.266 56.1221 66.5993 56.1335C66.9814 56.1197 67.3552 56.2475 67.6494 56.4926C67.7792 56.5961 67.8843 56.7277 67.9563 56.8776C68.0283 57.0275 68.0656 57.1917 68.0655 57.3581C68.0651 57.602 68.0069 57.8423 67.8953 58.0589C67.7451 58.3388 67.5704 58.6047 67.3733 58.8535L64.8067 62.3263L67.7038 66.494C68.0583 66.9142 68.2934 67.4225 68.3842 67.9655C68.3835 68.1332 68.3453 68.2986 68.2722 68.4495C68.1991 68.6003 68.093 68.7327 67.962 68.8369C67.6705 69.0834 67.2985 69.2132 66.9175 69.2013C66.5787 69.211 66.2479 69.0983 65.9851 68.8835C65.6539 68.5827 65.3612 68.2421 65.1131 67.8693Z" fill="#C68E0B"/>
<path d="M73.6396 57.933V58.3218C74.1508 57.6552 74.7887 57.0971 75.5163 56.6797C76.1965 56.3232 76.9549 56.1431 77.7221 56.1558C78.683 56.149 79.6264 56.4143 80.4438 56.9213C81.2993 57.4612 81.9812 58.2374 82.408 59.1567C82.9125 60.2472 83.1595 61.4398 83.1295 62.6417C83.1393 63.5668 82.9987 64.4873 82.7134 65.367C82.4715 66.1301 82.0827 66.8381 81.5691 67.4509C81.097 68.0027 80.5108 68.4446 79.8513 68.746C79.1821 69.0496 78.4556 69.2041 77.7212 69.1989C76.9172 69.2263 76.1204 69.0352 75.4156 68.6459C74.7291 68.2183 74.1268 67.6676 73.6387 67.0213V71.848C73.6387 73.2605 73.1267 73.9668 72.1024 73.9668C71.8719 73.9983 71.6371 73.9637 71.4253 73.8669C71.2136 73.77 71.0337 73.6149 70.9062 73.4196C70.6832 72.919 70.5823 72.3722 70.6125 71.8247V57.9564C70.5749 57.4656 70.7168 56.9779 71.0116 56.5845C71.1487 56.4326 71.3176 56.3131 71.5062 56.2347C71.6948 56.1563 71.8985 56.121 72.1024 56.1311C72.3096 56.124 72.5159 56.1618 72.7072 56.2421C72.8985 56.3223 73.0703 56.4431 73.2108 56.5961C73.5186 56.9705 73.6719 57.4488 73.6396 57.933ZM79.9151 62.6067C79.9336 61.86 79.802 61.1172 79.5279 60.4227C79.3081 59.8641 78.9364 59.3788 78.455 59.0221C78.0133 58.7014 77.4815 58.5301 76.9363 58.5333C76.5094 58.5288 76.087 58.6206 75.7003 58.8019C75.3135 58.9833 74.9721 59.2496 74.7016 59.581C74.0954 60.2799 73.7924 61.308 73.7924 62.6655C73.7266 63.737 74.0472 64.7964 74.6955 65.6503C74.9638 65.9872 75.3049 66.2582 75.6932 66.4428C76.0815 66.6273 76.5067 66.7207 76.9363 66.7156C77.4647 66.7165 77.9806 66.5542 78.4139 66.2505C78.9009 65.8976 79.279 65.414 79.5047 64.8553C79.7962 64.1426 79.9358 63.3767 79.9151 62.6067Z" fill="#C68E0B"/>
<path d="M88.8768 64.5613V67.2454C88.9172 67.7747 88.7532 68.2994 88.4191 68.711C88.2713 68.8708 88.0909 68.9971 87.8905 69.0813C87.6901 69.1655 87.4741 69.2058 87.2569 69.1995C87.0428 69.2055 86.8303 69.1644 86.6337 69.079C86.4371 68.9936 86.2614 68.866 86.1192 68.7052C85.7946 68.2921 85.6356 67.772 85.6734 67.2472V58.3C85.6734 56.856 86.1932 56.1338 87.2333 56.1335C87.4519 56.114 87.672 56.1501 87.873 56.2387C88.074 56.3272 88.2495 56.4652 88.3832 56.6399C88.6497 57.092 88.7838 57.6101 88.7705 58.1352C89.0757 57.573 89.4747 57.0673 89.9497 56.6399C90.4099 56.2834 90.982 56.1037 91.5626 56.1335C92.2473 56.1368 92.9204 56.3108 93.5215 56.6399C93.7921 56.7476 94.0258 56.9317 94.1944 57.1699C94.363 57.4081 94.4592 57.6902 94.4715 57.9822C94.4768 58.1638 94.4434 58.3444 94.3736 58.512C94.3038 58.6796 94.1992 58.8303 94.0667 58.9541C93.8372 59.1911 93.5244 59.3284 93.1953 59.3366C92.9045 59.2951 92.6187 59.222 92.3437 59.1184C91.9603 58.9851 91.5587 58.9117 91.1531 58.9007C90.7382 58.8829 90.3305 59.0143 90.0036 59.2714C89.6758 59.5671 89.4364 59.9483 89.3119 60.3726C89.1326 60.9364 89.0188 61.5191 88.9728 62.109C88.9083 62.7781 88.8765 63.5955 88.8768 64.5613Z" fill="#C68E0B"/>
<path d="M104.559 63.4547H98.2949C98.2889 64.124 98.4397 64.7854 98.7351 65.3855C98.9778 65.8966 99.3618 66.3269 99.8411 66.6253C100.32 66.9237 100.875 67.0777 101.439 67.0689C101.793 67.0727 102.147 67.0271 102.489 66.9333C102.814 66.8388 103.125 66.696 103.409 66.5096C103.698 66.324 103.973 66.1174 104.232 65.8914C104.481 65.6718 104.806 65.3735 105.205 64.9967C105.407 64.8433 105.657 64.7681 105.909 64.7848C106.199 64.772 106.483 64.8685 106.706 65.0555C106.81 65.1527 106.891 65.2717 106.944 65.404C106.996 65.5363 107.019 65.6787 107.011 65.8209C106.988 66.1841 106.871 66.535 106.672 66.839C106.404 67.2733 106.055 67.6525 105.646 67.9568C105.124 68.3472 104.541 68.6476 103.921 68.8457C103.15 69.0929 102.344 69.2121 101.534 69.1984C99.4774 69.1984 97.8782 68.6098 96.7364 67.4324C95.5947 66.255 95.024 64.658 95.0243 62.6412C95.0159 61.7427 95.1586 60.8492 95.4465 59.9984C95.7063 59.2229 96.1258 58.5109 96.6778 57.9088C97.2334 57.3179 97.9154 56.8611 98.6722 56.5728C99.5112 56.2539 100.402 56.0961 101.299 56.1077C102.424 56.0759 103.537 56.3505 104.519 56.9023C105.368 57.3849 106.065 58.0965 106.531 58.9565C106.963 59.7432 107.193 60.6254 107.2 61.5235C107.2 62.3315 106.969 62.8554 106.507 63.0951C105.894 63.365 105.227 63.4881 104.559 63.4547ZM98.2949 61.6294H104.101C104.098 60.7296 103.785 59.8585 103.216 59.1636C102.956 58.8909 102.641 58.6768 102.292 58.5357C101.943 58.3946 101.568 58.3296 101.192 58.3452C100.825 58.3338 100.459 58.4021 100.12 58.5453C99.781 58.6885 99.4768 58.9034 99.2278 59.1752C98.6592 59.8696 98.3315 60.7313 98.2949 61.6294Z" fill="#C68E0B"/>
<path d="M120.206 64.9943C120.244 65.8082 120.015 66.6121 119.554 67.2829C119.093 67.9537 118.426 68.4545 117.655 68.7086C116.671 69.0581 115.631 69.2237 114.588 69.197C113.577 69.2228 112.571 69.0425 111.632 68.6673C110.92 68.3948 110.293 67.9379 109.814 67.343C109.45 66.8898 109.244 66.3297 109.227 65.748C109.225 65.5791 109.257 65.4115 109.322 65.2555C109.386 65.0995 109.482 64.9585 109.603 64.8412C109.727 64.7166 109.876 64.6189 110.039 64.5541C110.202 64.4893 110.377 64.4588 110.553 64.4646C110.833 64.4454 111.11 64.5338 111.328 64.7119C111.535 64.9143 111.71 65.1487 111.844 65.4064C112.123 65.9266 112.528 66.368 113.022 66.6898C113.595 67.0003 114.243 67.147 114.893 67.1136C115.451 67.1373 116.002 66.987 116.471 66.6835C116.647 66.5849 116.796 66.443 116.904 66.2712C117.012 66.0994 117.075 65.903 117.087 65.7004C117.104 65.4553 117.053 65.2104 116.94 64.9924C116.827 64.7744 116.657 64.5918 116.447 64.4646C115.784 64.1187 115.076 63.869 114.342 63.723C113.423 63.5081 112.522 63.2186 111.65 62.8574C111.011 62.5942 110.443 62.185 109.99 61.6624C109.569 61.1499 109.348 60.5014 109.368 59.8376C109.371 59.185 109.572 58.5487 109.944 58.0132C110.369 57.4052 110.956 56.9298 111.638 56.6413C112.493 56.2785 113.415 56.1038 114.342 56.1291C115.095 56.1205 115.846 56.2075 116.577 56.3881C117.161 56.5288 117.719 56.7633 118.229 57.0826C118.628 57.3316 118.972 57.6604 119.239 58.0482C119.453 58.352 119.573 58.7123 119.585 59.0843C119.59 59.253 119.56 59.4211 119.496 59.5773C119.433 59.7336 119.336 59.8744 119.214 59.9907C118.924 60.2422 118.547 60.3691 118.165 60.344C117.861 60.3522 117.564 60.2521 117.327 60.0616C117.034 59.8078 116.768 59.5235 116.534 59.2136C116.301 58.9083 116.01 58.6523 115.678 58.4604C115.264 58.2525 114.804 58.1552 114.341 58.178C113.835 58.1586 113.333 58.2874 112.898 58.5488C112.73 58.6379 112.588 58.7703 112.487 58.9325C112.386 59.0947 112.33 59.281 112.324 59.4722C112.322 59.6344 112.359 59.7947 112.433 59.9392C112.506 60.0837 112.614 60.2081 112.746 60.3017C113.09 60.5474 113.475 60.7285 113.884 60.8362C114.361 60.9772 115.018 61.1497 115.854 61.3538C116.698 61.5434 117.515 61.836 118.288 62.2252C118.851 62.5065 119.341 62.9157 119.719 63.4202C120.044 63.8795 120.214 64.4309 120.206 64.9943Z" fill="#C68E0B"/>
<path d="M133.226 64.9943C133.264 65.8083 133.034 66.6122 132.574 67.2831C132.113 67.9539 131.446 68.4546 130.674 68.7086C129.69 69.0582 128.65 69.2238 127.607 69.1971C126.597 69.2227 125.592 69.0424 124.654 68.6673C123.941 68.3953 123.314 67.9383 122.835 67.343C122.472 66.8899 122.266 66.3298 122.249 65.7481C122.246 65.5792 122.278 65.4116 122.343 65.2557C122.407 65.0997 122.503 64.9587 122.624 64.8413C122.748 64.7167 122.897 64.619 123.06 64.5542C123.223 64.4895 123.398 64.459 123.574 64.4646C123.854 64.4456 124.131 64.534 124.349 64.712C124.556 64.9143 124.73 65.1487 124.864 65.4064C125.144 65.9268 125.549 66.3682 126.044 66.6899C126.617 67.0005 127.264 67.1471 127.914 67.1137C128.472 67.1373 129.023 66.9871 129.492 66.6836C129.668 66.5848 129.817 66.4429 129.925 66.2711C130.032 66.0993 130.095 65.903 130.107 65.7004C130.124 65.4555 130.073 65.2106 129.961 64.9926C129.848 64.7747 129.678 64.592 129.469 64.4646C128.805 64.1187 128.096 63.8691 127.362 63.723C126.443 63.5082 125.543 63.2187 124.671 62.8575C124.032 62.5943 123.463 62.1851 123.01 61.6625C122.589 61.1499 122.369 60.5014 122.389 59.8376C122.392 59.1851 122.592 58.5488 122.964 58.0133C123.389 57.4055 123.976 56.9301 124.658 56.6414C125.513 56.2786 126.435 56.1039 127.362 56.1292C128.115 56.1205 128.866 56.2075 129.597 56.3882C130.182 56.5289 130.74 56.7634 131.251 57.0826C131.649 57.3317 131.992 57.6604 132.259 58.0483C132.473 58.352 132.594 58.7124 132.605 59.0844C132.61 59.253 132.581 59.4211 132.517 59.5773C132.453 59.7335 132.357 59.8744 132.235 59.9907C131.945 60.2421 131.568 60.3691 131.186 60.344C130.882 60.3522 130.585 60.2521 130.347 60.0616C130.054 59.8075 129.789 59.5233 129.555 59.2136C129.322 58.9081 129.031 58.6521 128.698 58.4604C128.284 58.2525 127.824 58.1552 127.361 58.178C126.855 58.1587 126.354 58.2876 125.919 58.5488C125.751 58.6381 125.608 58.7705 125.507 58.9327C125.407 59.0949 125.35 59.2811 125.344 59.4722C125.342 59.6345 125.38 59.7947 125.454 59.9393C125.527 60.0838 125.634 60.2082 125.767 60.3017C126.111 60.5472 126.496 60.7283 126.904 60.8363C127.381 60.9772 128.038 61.1498 128.875 61.3539C129.719 61.5434 130.536 61.836 131.309 62.2252C131.872 62.5066 132.362 62.9157 132.74 63.4202C133.065 63.8797 133.235 64.4311 133.226 64.9943Z" fill="#C68E0B"/>
<path d="M148.782 64.1725C151.622 64.1725 153.924 61.8618 153.924 59.0114C153.924 56.1611 151.622 53.8504 148.782 53.8504C145.942 53.8504 143.64 56.1611 143.64 59.0114C143.64 61.8618 145.942 64.1725 148.782 64.1725Z" fill="#C68E0B"/>
<path d="M136.027 54.6464C136.277 50.8991 139.132 48.4299 139.637 48.0221C141.454 46.294 150.367 37.2126 150.478 37.1008C151.09 36.5015 151.575 35.7852 151.905 34.9943C152.236 34.2034 152.405 33.3539 152.403 32.4962C152.4 31.6385 152.226 30.7901 151.891 30.0011C151.556 29.2121 151.067 28.4985 150.452 27.9027L138.31 15.386L138.213 15.2742C136.436 13.0237 134.302 7.53697 138.943 2.87842C140.847 0.968535 142.951 0 145.2 0H145.297C149.042 0.0485975 151.72 2.82641 151.793 2.9066L175.195 25.833C176.083 26.7027 176.789 27.7419 177.271 28.8895C177.753 30.0371 178.001 31.2698 178.001 32.5151C178.001 33.7604 177.753 34.9932 177.271 36.1408C176.789 37.2884 176.083 38.3276 175.195 39.1973L157.574 56.4611C157.437 56.5976 157.275 56.7056 157.096 56.7789C156.918 56.8521 156.727 56.8892 156.534 56.8878C156.341 56.8864 156.151 56.8467 155.973 56.7709C155.796 56.6952 155.635 56.5849 155.5 56.4464C155.366 56.3079 155.259 56.144 155.188 55.9641C155.117 55.7843 155.082 55.592 155.086 55.3985C155.089 55.205 155.13 55.0141 155.208 54.8368C155.285 54.6595 155.396 54.4993 155.536 54.3655L173.157 37.1017C173.767 36.5048 174.251 35.7916 174.582 35.004C174.912 34.2165 175.082 33.3705 175.082 32.5159C175.082 31.6613 174.912 30.8153 174.582 30.0277C174.251 29.2401 173.767 28.5269 173.157 27.93L149.717 4.96475C149.699 4.94483 147.749 2.96107 145.263 2.92997C143.775 2.91199 142.362 3.59136 141.007 4.95063C137.243 8.7286 139.973 12.753 140.461 13.4066L152.518 25.8354C153.404 26.7033 154.108 27.74 154.59 28.8847C155.072 30.0294 155.321 31.2592 155.322 32.5018C155.324 33.7444 155.079 34.9748 154.601 36.1211C154.123 37.2673 153.422 38.3062 152.538 39.1769C152.164 39.5588 143.346 48.5426 141.596 50.1973L141.481 50.2946C141.457 50.3125 139.12 52.1733 138.942 54.8423C138.823 56.6273 139.692 58.4647 141.524 60.3041C141.791 60.5801 141.938 60.9502 141.935 61.3346C141.933 61.7189 141.779 62.0867 141.509 62.3585C141.238 62.6303 140.871 62.7844 140.488 62.7875C140.105 62.7905 139.737 62.6423 139.462 62.3749C137.003 59.9115 135.85 57.3115 136.027 54.6464Z" fill="#C68E0B"/>
<path d="M117.588 48.3885C120.643 51.4546 123.57 48.3662 123.57 48.3662L136.532 35.6681C136.946 35.262 137.275 34.7768 137.5 34.241C137.725 33.7052 137.841 33.1296 137.841 32.5481C137.841 31.9667 137.725 31.3912 137.5 30.8554C137.275 30.3196 136.946 29.8343 136.532 29.4282L123.57 16.7302C123.57 16.7302 120.757 13.6899 117.873 16.5844C114.076 20.3954 117.931 23.3462 117.931 23.3462C118.899 24.2633 123.97 29.4287 123.97 29.4287C124.385 29.8348 124.714 30.32 124.939 30.8558C125.164 31.3916 125.28 31.9673 125.28 32.5487C125.28 33.1301 125.164 33.7057 124.939 34.2415C124.714 34.7773 124.385 35.2625 123.97 35.6686L117.245 42.6015C117.245 42.6015 114.847 45.6384 117.588 48.389" fill="#002D4B"/>
<path d="M16.8633 80.4862H15.677C15.6881 80.7671 15.688 81.1486 15.6996 81.6098C15.7103 81.9131 15.7105 82.2834 15.7105 82.7217C15.7192 82.8247 15.7053 82.9283 15.6703 83.0256C15.6353 83.1228 15.5799 83.2113 15.5077 83.2849C15.4354 83.3586 15.3482 83.4156 15.2519 83.4522C15.1556 83.4888 15.0525 83.504 14.9497 83.4968H12.7681C12.6535 83.4937 12.5406 83.4671 12.4366 83.4187C12.3326 83.3704 12.2397 83.3012 12.1633 83.2154C12.05 83.1066 11.9601 82.9759 11.8985 82.8312C11.8369 82.6864 11.8049 82.5306 11.8049 82.3732C11.7947 81.5082 11.7831 80.8789 11.7831 80.4862H10.6081C10.6193 82.0929 10.619 82.8675 10.619 82.8339C10.619 83.3389 10.3952 83.5868 9.93622 83.5868C9.80054 83.5914 9.6653 83.5667 9.53999 83.5143C9.41467 83.4618 9.3022 83.383 9.20994 83.283C8.98385 83.0228 8.86755 82.6845 8.88558 82.3397C8.87492 81.6317 8.86241 81.1248 8.86241 80.8118H7.68741C7.69854 81.9913 7.69875 82.6653 7.69875 82.8228C7.69875 83.3282 7.47547 83.5868 7.01597 83.5868C6.87854 83.5916 6.74177 83.567 6.61453 83.5147C6.4873 83.4623 6.37233 83.3833 6.27787 83.283C6.06155 83.0135 5.95046 82.6743 5.96486 82.3286V80.8118H4.79032C4.79032 81.0927 4.80093 82.104 4.81255 83.856C4.82237 84.3697 4.62897 84.8664 4.27493 85.2376C4.11549 85.4176 3.91985 85.5618 3.70091 85.6605C3.48196 85.7591 3.2449 85.8102 3.00489 85.8102C2.76488 85.8102 2.52734 85.7591 2.3084 85.6605C2.08945 85.5618 1.89382 85.4176 1.73437 85.2376C1.38882 84.8704 1.20027 84.3819 1.20905 83.8768C1.19743 83.2028 1.19723 82.4282 1.19723 81.5631H0L0.0449196 83.8545C0.0356246 84.2682 0.108133 84.6795 0.257697 85.0651C0.407261 85.4506 0.631312 85.8027 0.916833 86.1012C1.18138 86.3947 1.50396 86.6293 1.8644 86.7899C2.22484 86.9505 2.6148 87.0334 3.00914 87.0334C3.40349 87.0334 3.79344 86.9505 4.15388 86.7899C4.51432 86.6293 4.83738 86.3947 5.10193 86.1012C5.6094 85.5715 5.9147 84.8793 5.96391 84.1461C6.11809 84.3469 6.3194 84.5062 6.54976 84.6101C6.78011 84.7139 7.03216 84.7591 7.28407 84.7414C7.58404 84.7632 7.88304 84.6891 8.13849 84.5298C8.39394 84.3705 8.59297 84.1341 8.70637 83.8545C8.83815 84.1371 9.05174 84.3731 9.31964 84.5314C9.58754 84.6897 9.89702 84.7629 10.2072 84.7414C10.541 84.7676 10.8734 84.6747 11.1457 84.4791C11.4181 84.2836 11.613 83.9979 11.6961 83.6723C11.7901 83.9441 11.9661 84.1797 12.1997 84.3463C12.3854 84.4927 12.6129 84.5753 12.8489 84.582H15.3885C15.5871 84.6053 15.7883 84.5841 15.9777 84.5198C16.167 84.4555 16.3395 84.3497 16.4831 84.2102C16.6268 84.0707 16.7377 83.9008 16.808 83.713C16.8782 83.5252 16.906 83.324 16.8893 83.1241C16.8864 83.1372 16.8754 82.261 16.8633 80.4862Z" fill="#002D4B"/>
<path d="M16.2932 85.1589H15.2188V86.2931H16.2932V85.1589Z" fill="#002D4B"/>
<path d="M14.6825 85.1589H13.5969V86.2931H14.6825V85.1589Z" fill="#002D4B"/>
<path d="M25.84 85.1589H24.7545V86.2931H25.84V85.1589Z" fill="#002D4B"/>
<path d="M40.4882 80.4862L42.0211 78.97L41.1932 78.1501L38.1831 81.1943L38.6186 82.1147C39.1119 81.781 39.691 81.5977 40.2858 81.587C40.783 81.5724 41.2686 81.7401 41.6514 82.0588C42.0621 82.4268 42.3211 82.9355 42.3777 83.4852H37.8238V83.4968H36.9391C36.8246 83.4937 36.712 83.4671 36.6081 83.4187C36.5042 83.3703 36.4111 83.3012 36.3348 83.2154C36.2215 83.1066 36.1316 82.9759 36.07 82.8311C36.0084 82.6864 35.9764 82.5306 35.9764 82.3732C35.9657 81.5082 35.9546 80.8789 35.9546 80.4862H34.7792C34.7908 82.0929 34.791 82.8675 34.791 82.8339C34.791 83.3389 34.5662 83.5867 34.1077 83.5867C33.972 83.5914 33.8368 83.5667 33.7115 83.5143C33.5862 83.4618 33.4737 83.383 33.3814 83.283C33.1551 83.0229 33.0388 82.6845 33.0571 82.3397C33.0455 81.6317 33.0344 81.1248 33.0344 80.8118H31.8589C31.87 81.9913 31.8702 82.6653 31.8702 82.8228C31.8702 83.3282 31.646 83.5867 31.1875 83.5867C31.0499 83.5915 30.9129 83.5668 30.7856 83.5144C30.6582 83.4621 30.5432 83.3832 30.4484 83.283C30.2588 83.0594 30.149 82.7788 30.1359 82.4855V80.8118H28.9604C28.9604 81.0927 28.9715 81.9781 28.9831 83.4968H26.7333C26.614 83.493 26.4969 83.4629 26.3905 83.4084C26.2841 83.354 26.1913 83.2767 26.1182 83.1819C25.9994 83.0567 25.9074 82.9085 25.8477 82.7463C25.788 82.5841 25.7619 82.4113 25.7711 82.2386C25.7485 81.486 25.7372 80.9019 25.7375 80.4862H24.5625L24.5848 82.71C24.5877 82.8333 24.557 82.9551 24.4959 83.0621C24.4348 83.1691 24.3457 83.2572 24.2382 83.317C24.0679 83.4363 23.8647 83.4992 23.657 83.4968H21.3066C21.0374 83.4526 20.7924 83.3147 20.6143 83.1074C20.4362 82.9 20.3364 82.6363 20.3325 82.3626V80.4862H19.1466V83.6645C19.1529 83.9877 19.0935 84.3088 18.9722 84.6083C18.8508 84.9078 18.67 85.1793 18.4407 85.4063C18.2114 85.6333 17.9383 85.8111 17.6383 85.9288C17.3383 86.0465 17.0178 86.1017 16.6959 86.091C17.0203 86.4841 17.2665 86.7985 17.434 87.023C18.2216 86.9606 18.9573 86.6043 19.4961 86.0243C20.0348 85.4444 20.3378 84.6829 20.3448 83.89C20.4348 84.0929 20.5801 84.266 20.7642 84.3892C20.9483 84.5124 21.1634 84.5806 21.3846 84.5859H24.1039C24.3996 84.5921 24.6904 84.5086 24.938 84.3463C25.1856 84.184 25.3785 83.9504 25.4917 83.6761C25.5568 83.8522 25.6515 84.0157 25.7716 84.1597C25.8735 84.2917 26.0039 84.3986 26.1532 84.4724C26.3024 84.5463 26.4662 84.5851 26.6326 84.5859H30.1463V84.1597C30.3015 84.3552 30.5017 84.5103 30.7293 84.6118C30.9569 84.7133 31.2051 84.7583 31.4537 84.7429C31.7536 84.7646 32.0527 84.6905 32.3081 84.5312C32.5635 84.3719 32.7622 84.1355 32.8755 83.856C33.0073 84.1385 33.2209 84.3744 33.4888 84.5327C33.7567 84.691 34.0662 84.7643 34.3763 84.7429C34.7101 84.7689 35.0426 84.6759 35.3149 84.4804C35.5872 84.2849 35.782 83.9992 35.8653 83.6737C35.9588 83.9455 36.1348 84.1812 36.3684 84.3477C36.554 84.4938 36.7813 84.5765 37.0171 84.5835H43.6089C43.6578 83.5917 43.4248 82.6062 42.9375 81.742C42.6801 81.3303 42.3167 80.9962 41.8854 80.7751C41.4542 80.554 40.9714 80.4542 40.4882 80.4862Z" fill="#002D4B"/>
<path d="M45.5126 86.0798C45.5126 85.9112 45.5794 85.8213 45.7145 85.8213C45.7719 85.8241 45.8282 85.8385 45.88 85.8635C45.9318 85.8886 45.9781 85.9237 46.0162 85.967L46.2843 85.5511C46.218 85.4546 46.1298 85.3757 46.0266 85.3211C45.9234 85.2664 45.8085 85.2376 45.6918 85.2371C45.5908 85.2397 45.4912 85.2624 45.3991 85.304C45.307 85.3457 45.2239 85.4054 45.1551 85.4796C45.0863 85.5539 45.0334 85.6412 44.9986 85.7364C44.9638 85.8316 44.948 85.9328 44.9527 86.0341C44.9499 86.158 44.9853 86.2796 45.0539 86.3825H44.5697L44.3135 86.9327H46.3046V86.3825H45.9353C45.6579 86.383 45.5126 86.28 45.5126 86.0798Z" fill="#002D4B"/>
<path d="M46.2956 84.5859L46.2398 77.3186H45.0648L45.1206 84.5859H46.2956Z" fill="#002D4B"/>
<path d="M52.3499 87.8657H51.2755V89H52.3499V87.8657Z" fill="#002D4B"/>
<path d="M53.9723 87.8657H52.8978V89H53.9723V87.8657Z" fill="#002D4B"/>
<path d="M61.9408 85.1589H60.8552V86.2931H61.9408V85.1589Z" fill="#002D4B"/>
<path d="M68.3411 78.4417H67.2783V79.5765H68.3411V78.4417Z" fill="#002D4B"/>
<path d="M67.9497 80.4639C67.5401 80.4731 67.1378 80.5739 66.7719 80.7588C66.4059 80.9438 66.0855 81.2082 65.8342 81.533L65.8905 77.9276H64.7377L64.7599 83.4988H62.836C62.7166 83.4949 62.5996 83.4646 62.4931 83.4102C62.3867 83.3558 62.2932 83.2785 62.2198 83.1839C62.1013 83.0585 62.0095 82.9102 61.9499 82.748C61.8903 82.5859 61.8642 82.4132 61.8733 82.2406C61.851 81.488 61.8397 80.9039 61.8397 80.4882H60.6642L60.6869 82.712C60.6898 82.8353 60.6592 82.9572 60.598 83.0642C60.5368 83.1712 60.4475 83.2593 60.3398 83.319C60.1697 83.4385 59.9664 83.5014 59.7587 83.4988H58.2144C58.0018 83.5114 57.7919 83.4451 57.6248 83.3124C57.4577 83.1798 57.3452 82.9901 57.3085 82.7795C57.1724 82.2005 56.945 81.6468 56.6356 81.1394C56.4051 80.8296 56.1091 80.5753 55.7684 80.3949C55.4278 80.2144 55.0511 80.1124 54.6663 80.0963C54.2814 80.0801 53.8977 80.1502 53.5433 80.3015C53.1888 80.4527 52.8724 80.6814 52.617 80.9707C52.0798 81.7329 51.8195 82.657 51.8789 83.5887H54.2629L54.2733 83.8462C54.2852 84.1226 54.2373 84.3983 54.1329 84.6544C54.0285 84.9104 53.8701 85.1407 53.6686 85.3294C53.5105 85.4849 53.3236 85.6076 53.1182 85.6904C52.9128 85.7732 52.6931 85.8146 52.4718 85.812C52.0327 85.8086 51.6119 85.6358 51.2963 85.3294C51.0938 85.1464 50.9336 84.9209 50.8273 84.669C50.7209 84.4171 50.6708 84.1449 50.6807 83.8715C50.6807 83.7928 50.6696 83.6018 50.658 83.2762C50.6464 82.9506 50.6481 82.6804 50.6481 82.4899H49.4716C49.4949 83.1299 49.5054 83.579 49.5175 83.8603C49.5081 84.274 49.5802 84.6854 49.7298 85.071C49.8794 85.4566 50.1033 85.8086 50.389 86.107C50.6535 86.4005 50.9761 86.6351 51.3365 86.7957C51.6969 86.9562 52.087 87.0392 52.4813 87.0392C52.8756 87.0392 53.2656 86.9562 53.626 86.7957C53.9864 86.6351 54.3091 86.4005 54.5736 86.107C54.8583 85.8102 55.0817 85.4601 55.2313 85.0765C55.3808 84.6929 55.4534 84.2833 55.445 83.8715V82.4899H53.2969C53.5545 81.7123 53.991 81.3235 54.618 81.3104C55.4347 81.2997 55.9836 81.9514 56.2644 83.2655C56.3411 83.5793 56.495 83.8687 56.7122 84.1072C56.8493 84.2627 57.0183 84.3865 57.2078 84.4699C57.3972 84.5533 57.6028 84.5944 57.8097 84.5903H60.2041C60.4998 84.5966 60.7906 84.5131 61.0382 84.3508C61.2858 84.1884 61.4788 83.9548 61.5919 83.6805C61.6572 83.8565 61.7519 84.02 61.8718 84.1641C61.9739 84.2961 62.1046 84.403 62.2539 84.4768C62.4032 84.5507 62.5674 84.5895 62.7338 84.5903H70.6004C70.6014 81.8358 69.7176 80.4603 67.9497 80.4639ZM65.6787 83.4968C66.1367 82.1847 66.8889 81.5311 67.9275 81.5311C68.9351 81.5311 69.4283 82.1827 69.4046 83.4968H65.6787Z" fill="#002D4B"/>
<path d="M79.3523 80.4862C79.3634 80.7671 79.3638 81.1486 79.3759 81.6098C79.3866 81.9131 79.3863 82.2834 79.3863 82.7217C79.395 82.8247 79.3816 82.9284 79.3466 83.0257C79.3116 83.1229 79.2558 83.2115 79.1835 83.2851C79.1112 83.3587 79.024 83.4158 78.9277 83.4523C78.8313 83.4889 78.7278 83.5041 78.6251 83.4968H76.0296V82.2386C76.0296 81.1603 75.3244 80.4639 74.1042 80.4639C73.8264 80.4562 73.55 80.5056 73.2919 80.6092C73.0338 80.7127 72.7999 80.8681 72.6039 81.0659C72.4079 81.2637 72.2541 81.4996 72.1524 81.7593C72.0506 82.0189 72.0032 82.2966 72.0124 82.5754C72.0009 82.8312 72.0401 83.0868 72.1283 83.3271C72.2164 83.5674 72.3514 83.7876 72.5254 83.9748C72.6995 84.1621 72.9088 84.3126 73.1415 84.4175C73.3743 84.5224 73.6255 84.5797 73.8806 84.5859H74.6641C74.4867 85.0394 74.1748 85.4272 73.7704 85.6966C73.366 85.9661 72.8887 86.1043 72.4034 86.0924C72.7167 86.4856 72.9632 86.8 73.1297 87.0245C73.7957 86.9797 74.4289 86.7171 74.9322 86.2769C75.4355 85.8368 75.7811 85.2434 75.9166 84.5874H79.061C79.2595 84.6107 79.4608 84.5894 79.6502 84.5251C79.8395 84.4608 80.012 84.355 80.1556 84.2155C80.2993 84.076 80.4102 83.9062 80.4805 83.7183C80.5507 83.5305 80.5785 83.3294 80.5618 83.1294C80.5618 83.1411 80.5512 82.2649 80.5396 80.4901L79.3523 80.4862ZM74.0494 83.4968C73.8079 83.4791 73.5832 83.3666 73.4238 83.1837C73.2645 83.0007 73.183 82.7621 73.1978 82.5195C73.1978 81.7775 73.59 81.2953 74.1042 81.2953C74.2834 81.3135 74.452 81.3905 74.5832 81.5142C74.7145 81.638 74.8012 81.8017 74.8305 81.9801C74.8305 82.07 74.8307 82.5754 74.8423 83.4968H74.0494Z" fill="#002D4B"/>
<path d="M79.4757 85.1589H78.4013V86.2931H79.4757V85.1589Z" fill="#002D4B"/>
<path d="M82.0162 77.3186L82.072 84.5859H83.2479L83.1917 77.3186H82.0162Z" fill="#002D4B"/>
<path d="M83.2247 76.0833C82.9454 76.0833 82.7997 75.9827 82.7997 75.78C82.7997 75.6114 82.867 75.5215 83.0011 75.5215C83.059 75.5219 83.1162 75.5352 83.1685 75.5604C83.2207 75.5856 83.2667 75.6221 83.3032 75.6673L83.5727 75.2518C83.5063 75.1553 83.4174 75.0764 83.3141 75.0216C83.2108 74.9669 83.0957 74.938 82.9789 74.9374C82.8778 74.94 82.7783 74.9628 82.6862 75.0045C82.5941 75.0463 82.5115 75.106 82.4427 75.1804C82.3739 75.2547 82.3204 75.3421 82.2857 75.4374C82.251 75.5327 82.2359 75.634 82.2408 75.7353C82.238 75.8589 82.2732 75.9804 82.3415 76.0833H81.8601L81.6029 76.6339H83.5945V76.0833H83.2247Z" fill="#002D4B"/>
</g>
<defs>
<clipPath id="clip0_4_242">
<rect width="178" height="89" fill="white"/>
</clipPath>
</defs>
</svg>
